<svg width="103" height="26" viewBox="0 0 103 26" fill="none" xmlns="http://www.w3.org/2000/svg">
<g clip-path="url(#clip0_5_798)">
<path d="M18.9333 25.3664H21.5612L12.328 0.507812H9.48707L0.253906 25.3664H2.81078L5.43868 18.1574H16.2699L18.9333 25.3664ZM8.81234 9.03075L10.8721 3.34879L12.9318 9.03075L15.4531 15.8846H6.29098L8.81234 9.03075Z" fill="#212529"/>
<path d="M30.2764 25.3655H33.1174L39.6872 7.60938H37.2013L31.7324 22.7021L25.9795 7.60938H23.3516L30.2764 25.3655Z" fill="#212529"/>
<path d="M49.4593 25.6126C53.8273 25.6126 56.2067 23.2333 56.9169 20.1793H54.5021C53.7918 22.0259 52.4069 23.4109 49.4593 23.4109C46.2988 23.4109 44.239 21.3512 44.239 17.2673V17.1607H57.0945V15.7047C57.0945 10.3779 54.0759 7.35938 49.4593 7.35938C44.8428 7.35938 41.8242 10.3779 41.8242 15.7047V17.2673C41.8242 22.6296 44.8072 25.6126 49.4593 25.6126ZM49.4593 9.56113C52.4424 9.56113 54.4666 11.4078 54.6441 15.101H44.239C44.4521 11.5498 46.4053 9.56113 49.4593 9.56113Z" fill="#212529"/>
<path d="M67.9642 25.6149C70.5566 25.6149 72.6163 24.5496 73.7882 22.3833L74.1078 25.3664H75.919V0.507812H73.5752V10.2026C72.3678 8.3205 70.4146 7.36167 67.9642 7.36167C63.9158 7.36167 61.0039 10.2737 61.0039 15.707V17.2696C61.0039 22.7385 63.8803 25.6149 67.9642 25.6149ZM68.4969 23.4132C65.4784 23.4132 63.4187 21.3535 63.4187 17.2696V15.707C63.4187 11.5876 65.4429 9.56343 68.4969 9.56343C71.3379 9.56343 73.4686 11.6586 73.5752 15.4229V17.2696C73.5752 21.2469 71.4089 23.4132 68.4969 23.4132Z" fill="#212529"/>
<path d="M87.6223 25.6126C92.2744 25.6126 94.3696 23.5174 94.3696 20.5699C94.3696 13.4675 83.645 16.557 83.645 12.2245C83.645 10.6265 84.7103 9.56113 87.6223 9.56113C90.2147 9.56113 91.2446 10.591 91.5997 12.4021H94.0145C93.6594 9.41908 91.5997 7.35938 87.6223 7.35938C83.3253 7.35938 81.2301 9.4546 81.2301 12.2245C81.2301 18.9008 91.9548 15.8113 91.9548 20.5699C91.9548 22.3455 90.8894 23.4109 87.6223 23.4109C84.6748 23.4109 83.645 22.381 83.2898 20.2148H80.875C81.2301 23.5529 83.2898 25.6126 87.6223 25.6126Z" fill="#212529"/>
<path d="M100.77 25.6095C101.906 25.6095 102.723 24.7572 102.723 23.6563C102.723 22.5909 101.906 21.7031 100.77 21.7031C99.6332 21.7031 98.8164 22.5909 98.8164 23.6563C98.8164 24.7572 99.6332 25.6095 100.77 25.6095Z" fill="#212529"/>
</g>
<defs>
<clipPath id="clip0_5_798">
<rect width="102.732" height="26" fill="white"/>
</clipPath>
</defs>
</svg>
